# xmcd
#
# Track frame offsets: 
#        150
#        17800
#        33827
#        50317
#        67660
#        88065
#        107925
#        125275
#        145140
#        162140
#        186687
#        205105
#
# Disc length: 2983 seconds
#
# Revision: 0
# Processed by: cddbd v1.5.1PL0 Copyright (c) Steve Scherf et al.
# Submitted via: ExactAudioCopy v0.95a5
#
DISCID=9f0ba50c
DTITLE=Various Artist - Entertainment Weekly Greatest Hits Of 1993
DYEAR=2000
DGENRE=Pop/Rock
TTITLE0=Snap - Rhythm Is A Dancer
TTITLE1=Ace Of Base - All That She Wants
TTITLE2=The Proclaimers - I'm Gonna Be (500 Miles)
TTITLE3=Expose - I'll Never Get Over You (Getting Over Me)
TTITLE4=Snow - Informer
TTITLE5=Digable Planets - Rebirth Of Slick (Cool Like Dat)
TTITLE6=Positive K - I Got A Man
TTITLE7=SWV - Weak
TTITLE8=Tag Team - Whoomp! There It Is
TTITLE9=D.R.S. - Gangsta Lean
TTITLE10=Tony Toni Tone - If I Had No Loot
TTITLE11=PM Dawn - Looking Through Patient Eyes
EXTD=
EXTT0=
EXTT1=
EXTT2=
EXTT3=
EXTT4=
EXTT5=
EXTT6=
EXTT7=
EXTT8=
EXTT9=
EXTT10=
EXTT11=
PLAYORDER=
